<svg width="86" height="33" viewBox="0 0 86 33" fill="none" xmlns="http://www.w3.org/2000/svg">
<path d="M10.7799 6.96786C12.4548 6.96786 13.8127 5.51922 13.8127 3.73222C13.8127 1.94523 12.4548 0.496582 10.7799 0.496582C9.1049 0.496582 7.74707 1.94523 7.74707 3.73222C7.74707 5.51922 9.1049 6.96786 10.7799 6.96786Z" fill="white"/>
<path d="M7.41682 9.50129H2.37218C1.08099 9.50129 0 10.6226 0 12.0321C0 13.4097 1.05097 14.563 2.37218 14.563H7.41682C7.98735 14.563 8.43776 15.0435 8.43776 15.6522V29.9723C8.43776 31.3499 9.48873 32.5032 10.8099 32.5032C12.1312 32.5032 13.1821 31.3819 13.1821 29.9723V15.5881C13.1521 12.2244 10.5697 9.50129 7.41682 9.50129Z" fill="white"/>
<path d="M41.6183 9.50129C40.3271 9.50129 39.2461 10.6226 39.2461 12.0321V29.9723C39.2461 31.3499 40.2971 32.5032 41.6183 32.5032C42.9095 32.5032 43.9905 31.3819 43.9905 29.9723V12.0001C43.9905 10.6226 42.9395 9.50129 41.6183 9.50129Z" fill="white"/>
<path d="M17.5361 18.7597C17.5361 13.666 21.4397 9.50129 26.2141 9.50129C30.9885 9.50129 34.8921 13.6339 34.9522 18.7597V29.9723C34.9522 31.3819 33.8712 32.5032 32.58 32.5032C31.2588 32.5032 30.2078 31.3499 30.2078 29.9723V18.7597C30.2078 16.4211 28.4362 14.5309 26.2441 14.5309C24.0521 14.5309 22.2805 16.4211 22.2805 18.7597V29.9723C22.2805 31.3819 21.1995 32.5032 19.9083 32.5032C18.5871 32.5032 17.5361 31.3499 17.5361 29.9723V18.7597Z" fill="white"/>
<path d="M38.5854 3.73222C38.5854 1.9382 39.9367 0.496582 41.6182 0.496582C43.2998 0.496582 44.651 1.9382 44.651 3.73222C44.651 5.52624 43.2998 6.96786 41.6182 6.96786C39.9367 6.96786 38.5854 5.52624 38.5854 3.73222Z" fill="white"/>
<path fill-rule="evenodd" clip-rule="evenodd" d="M74.4987 9.50129C68.5532 9.50129 63.7187 14.6591 63.7187 21.0022C63.7187 27.3454 68.5532 32.5032 74.4987 32.5032C77.081 32.5032 80.0838 31.5741 82.0656 29.7801C82.9965 28.9151 83.0866 27.4094 82.3058 26.4163C81.4951 25.4232 80.264 25.199 79.1529 26.16C77.9819 27.1852 76.4505 27.8579 74.4987 27.8579C71.7962 27.8579 68.9436 25.9358 68.2829 23.2127H83.0565C84.2877 23.2127 85.1284 22.2837 85.1284 20.9702C85.1284 14.6591 80.4441 9.50129 74.4987 9.50129ZM68.2529 19.2082C68.6433 16.0687 71.3458 13.9543 74.4686 13.9543C77.6516 13.9543 80.324 15.9085 80.8945 19.2082H68.2529Z" fill="white"/>
<path d="M59.3043 14.1785H54.0795C53.539 14.1785 53.0886 14.6591 53.0285 15.2357V22.7962C53.0285 25.3911 54.9803 27.4735 57.4126 27.4735H59.0941C60.4454 27.4735 61.5264 28.6268 61.4663 30.0684C61.4363 31.4459 60.3553 32.5031 59.0641 32.5031H57.4426C52.428 32.5031 48.3442 28.1462 48.3442 22.7962V3.02998C48.3442 1.58835 49.4252 0.435056 50.7765 0.499128C52.0677 0.531164 53.0586 1.68446 53.0586 3.06201V11.8399C53.0586 10.5584 54.0495 9.50126 55.2506 9.50126H59.2443C60.4454 9.50126 61.4663 10.4623 61.4963 11.7438C61.5264 13.0893 60.5355 14.1785 59.3043 14.1785Z" fill="white"/>
</svg>
